<svg width="413" height="429" viewBox="0 0 413 429" fill="none" xmlns="http://www.w3.org/2000/svg">
<circle cx="204.5" cy="210.5" r="186.5" fill="white"/>
<path d="M190.519 47.5508C162.641 51.0355 134.049 62.5872 110.995 77.7374C90.0048 91.6947 76.6968 106.301 61.9821 131.078C60.0346 134.324 57.6543 138.219 56.6805 139.734C49.756 150.12 43.9134 165.809 39.3692 186.366C37.6381 193.94 37.6381 235.703 39.3692 237.434C40.4512 238.516 41.6413 238.408 45.861 236.785C48.674 235.703 54.0838 234.189 57.9789 233.431C65.9854 231.916 86.4344 224.992 97.1458 220.015C106.883 215.471 133.283 206.274 146.916 202.595C153.949 200.648 163.47 192.641 167.581 185.068C172.558 176.087 173.748 169.704 173.748 152.068C173.748 126.209 177.968 112.144 188.788 101.54C194.63 95.9143 206.099 89.4225 213.997 87.2586C230.227 82.9308 249.053 88.6652 257.167 100.459C260.521 105.436 263.984 106.842 271.233 106.193C277.4 105.652 284.865 107.491 287.138 109.98C289.734 112.685 292.115 125.344 291.033 130.753C290.059 135.839 291.79 137.57 296.983 136.921C299.905 136.488 302.069 136.921 304.233 138.327C310.075 141.898 313.321 145.576 313.321 148.497C313.321 152.068 310.508 156.071 308.019 156.071C306.18 156.071 297.633 146.875 295.469 142.655C294.711 141.248 293.305 140.383 291.682 140.383C289.41 140.383 288.328 141.573 285.406 147.74C282.81 153.042 280.321 156.288 276.318 159.317C273.397 161.697 270.367 163.645 269.61 163.645C268.852 163.645 266.905 164.835 265.282 166.35C260.413 170.786 261.82 180.307 270.151 199.89C272.207 204.867 273.397 220.556 272.531 232.241C271.449 246.847 271.666 249.228 274.37 256.801C275.561 259.939 276.534 263.401 276.534 264.267C276.534 266.647 280.646 274.113 284 277.575C288.003 282.011 294.603 285.582 303.8 288.611C315.918 292.506 319.38 294.237 324.141 298.673C326.954 301.486 328.468 303.867 328.468 305.598C328.468 309.926 329.009 309.709 304.665 316.85C299.58 318.365 293.954 320.096 292.115 320.637C287.895 321.827 273.613 321.935 272.856 320.637C272.531 320.204 270.259 319.447 267.771 319.014C257.384 317.391 249.377 311.657 242.02 300.837C240.072 297.808 237.476 295.427 235.961 294.995C233.472 294.345 220.489 298.024 217.568 300.08C217.027 300.513 213.564 301.162 209.994 301.595C202.961 302.46 198.201 304.408 196.686 307.113C194.63 310.791 183.053 317.283 172.342 320.637L164.629 323.081C162.501 323.755 160.275 324.068 158.043 324.007L137.611 323.45C110.021 322.693 101.798 321.394 94.4409 316.417C87.7327 311.765 86.5426 309.493 88.1655 304.191C90.4376 296.726 102.556 289.044 127.441 279.414C137.178 275.628 142.155 270.542 148.863 257.234C155.247 244.792 161.089 238.084 164.876 239.057C166.066 239.382 168.122 240.572 169.421 241.762C172.45 244.684 172.017 246.198 163.145 264.159C154.165 282.552 150.053 286.988 135.663 293.804C129.821 296.618 124.627 298.89 123.978 298.89C123.329 298.89 122.031 299.322 120.949 299.863C119.975 300.513 117.811 301.162 116.188 301.486C112.293 302.352 109.372 305.273 110.995 306.896C112.401 308.303 134.798 308.086 153.191 306.68C163.47 305.814 165.525 305.273 174.073 301.054C183.27 296.618 183.919 295.968 189.112 288.178C193.332 281.903 195.063 277.791 197.119 269.785C198.525 264.051 199.715 258.641 199.715 257.559C199.715 254.962 206.532 248.038 209.128 248.038C212.482 248.038 214.863 251.5 214.863 256.26C214.863 261.129 212.05 275.519 210.535 278.441C209.886 279.523 209.453 281.362 209.453 282.552C209.453 285.798 215.404 285.582 220.273 282.336C222.328 280.929 225.791 278.873 227.954 277.9C236.827 273.68 250.676 255.503 253.921 243.71C254.679 241.005 255.436 231.808 255.653 223.261C256.085 207.572 254.895 199.241 251.108 190.261C244.076 173.707 243.751 170.461 248.295 160.94C251.433 154.232 256.085 149.255 260.521 147.848C265.823 146.225 271.125 141.898 273.288 137.462C278.374 126.75 276.859 121.449 268.528 121.449C260.63 121.34 254.895 119.501 251.866 115.931C247.105 110.196 241.479 105.219 239.748 105.219C238.774 105.219 237.476 104.678 236.718 103.921C235.961 103.163 232.499 102.622 228.712 102.622C223.194 102.731 220.273 103.488 213.24 106.734C203.394 111.278 200.797 113.442 196.037 120.908C191.168 128.481 190.194 133.458 189.437 154.448C189.004 164.51 188.355 174.248 187.814 176.087C187.273 177.819 186.299 181.497 185.65 184.202C180.997 202.054 170.07 212.766 149.188 220.015C141.398 222.72 129.064 226.507 123.437 227.805C123.373 227.818 123.303 227.835 123.227 227.857C121.872 228.24 120.669 229.051 119.349 229.543C118.346 229.917 117.09 230.336 115.864 230.726C113.483 231.484 106.992 234.297 101.474 236.893C90.3294 242.195 78.9689 246.415 73.1263 247.497C71.0706 247.821 68.3657 248.579 67.1755 249.12C64.2542 250.31 50.5134 255.287 47.4839 256.152C44.238 257.018 43.2643 261.346 44.9954 266.323C51.3789 284.608 77.5623 323.775 83.4049 323.775C84.7032 323.775 88.5983 326.155 92.0606 329.184C110.995 344.981 127.549 355.584 143.995 362.184C152.001 365.538 162.388 369.001 166.175 369.758C168.23 370.191 170.503 370.948 171.043 371.381C174.215 373.495 180.484 372.981 184.027 373.545C202.745 376.358 208.912 376.682 218.541 375.709C249.386 372.492 278.882 362.962 303.908 344.115C318.19 333.188 331.822 320.312 337.449 312.306C357.14 284.283 363.848 270.975 370.016 247.497C371.963 239.707 372.179 235.92 372.179 209.628C372.179 183.986 371.855 179.117 369.907 170.137C366.012 152.609 357.573 132.16 350.324 122.747C348.701 120.475 345.563 116.039 343.399 112.793C335.826 101.649 319.813 86.2849 306.288 77.3046C295.901 70.2719 295.577 70.1637 285.19 65.1867C274.84 60.1216 264.101 54.9214 252.731 52.7442C250.676 52.3114 248.403 51.554 247.863 51.1212C245.158 48.9573 202.42 46.3606 190.519 47.5508ZM240.072 117.337L240.124 117.406C241.435 119.154 241.414 121.563 240.072 123.288C237.692 126.642 232.931 127.724 230.443 125.668C228.171 123.829 228.604 119.285 231.309 116.363C234.338 113.117 237.259 113.55 240.072 117.337ZM249.377 138.002C250.243 139.193 248.079 141.789 239.315 149.904C233.04 155.638 227.413 160.399 226.548 160.399C225.791 160.399 224.492 159.425 223.843 158.343C222.004 155.314 224.925 146.983 228.82 144.278C238.017 137.678 246.889 135.081 249.377 138.002ZM294.603 158.127C297.849 162.888 297.957 169.055 294.928 169.055C293.738 169.055 292.764 168.946 292.764 168.73C292.764 168.622 291.79 165.809 290.6 162.563C289.41 159.317 288.436 155.963 288.436 155.206C288.436 152.609 292.115 154.34 294.603 158.127Z" fill="#EC0707"/>
<path d="M254.895 275.087C251.325 279.306 248.404 283.526 248.404 284.5C248.404 286.664 258.249 296.834 264.416 301.162C271.233 305.706 284 308.844 295.144 308.411C303.042 308.087 304.124 307.87 304.124 306.031C304.124 304.624 302.393 303.434 297.524 301.703C293.954 300.405 288.328 297.592 284.974 295.536C278.482 291.641 267.879 280.064 267.879 277.034C267.879 274.762 263.659 267.513 262.361 267.513C261.928 267.513 258.574 270.975 254.895 275.087Z" fill="#EC0707"/>
<path d="M153.87 18.6266C152.841 18.9353 151.861 19.3063 150.89 19.767C124.286 32.3856 74.8053 54.4349 54.5674 74.2072C15.4216 112.416 16.7047 124.454 7.31461 179.644C-4.03505 246.351 -3.06848 252.639 26.0528 313.467C38.8663 340.232 58.1382 418.257 122.211 426.127C137.089 428.068 199.585 436.747 274.538 393.761C362.523 356.861 370.822 349.431 403.261 265.615C425.033 209.502 406.306 186.711 384.609 132.438C384.013 130.946 383.6 129.357 383.372 127.767C375.975 76.2203 357.654 36.5773 295.207 11.7322C231.854 -13.2523 187.118 8.65814 153.87 18.6266ZM245.431 39.9567C246.909 40.0704 248.384 40.3788 249.792 40.8392C315.999 62.4813 349.866 83.3205 376.531 163.248C385.312 189.448 377.507 216.861 376.531 245.365C375.478 274.936 355.783 294.794 342.448 320.795C341.336 322.963 339.89 324.979 338.094 326.626C269.165 389.81 184.684 388.67 146.878 376.4C128.961 370.585 108.773 360.425 87.0313 342.419C72.4698 330.36 48.9221 298.395 37.6513 278.011C36.9723 276.783 36.171 275.646 35.3734 274.492C19.7611 251.895 25.6886 177.442 53.035 119.562C54.0339 117.448 55.4759 115.512 57.1612 113.892C107.151 65.8117 97.8001 69.8969 150.283 45.1638C151.614 44.5363 153.054 44.0292 154.497 43.7426C177.392 39.1974 222.7 38.2068 245.431 39.9567Z" fill="#EC0707"/>
</svg>