<svg width="1600" height="490" viewBox="0 0 1600 490" fill="none" xmlns="http://www.w3.org/2000/svg">
<circle cx="233.086" cy="240.377" r="213.171" fill="white"/>
<path d="M217.105 54.1242C185.24 58.1073 152.56 71.311 126.208 88.6278C102.217 104.581 87.0055 121.276 70.1866 149.596C67.9606 153.306 65.2399 157.759 64.1268 159.49C56.212 171.362 49.5339 189.294 44.3399 212.791C42.3612 221.448 42.3612 269.184 44.3399 271.163C45.5765 272.399 46.9369 272.276 51.76 270.421C54.9754 269.184 61.1588 267.453 65.6109 266.587C74.7623 264.856 98.1357 256.941 110.379 251.252C121.509 246.058 151.684 235.546 167.266 231.341C175.305 229.115 186.188 219.964 190.887 211.307C196.576 201.043 197.936 193.746 197.936 173.588C197.936 144.031 202.759 127.954 215.126 115.835C221.804 109.404 234.913 101.984 243.941 99.5106C262.491 94.5639 284.01 101.118 293.285 114.598C297.118 120.287 301.076 121.895 309.362 121.153C316.411 120.534 324.944 122.637 327.541 125.481C330.509 128.573 333.23 143.042 331.993 149.225C330.88 155.038 332.859 157.017 338.795 156.275C342.134 155.78 344.607 156.275 347.081 157.882C353.759 161.963 357.469 166.168 357.469 169.507C357.469 173.588 354.253 178.164 351.409 178.164C349.307 178.164 339.537 167.652 337.063 162.829C336.198 161.221 334.59 160.232 332.735 160.232C330.138 160.232 328.901 161.592 325.562 168.641C322.594 174.701 319.75 178.411 315.174 181.874C311.835 184.595 308.372 186.821 307.507 186.821C306.641 186.821 304.415 188.181 302.56 189.912C296.995 194.983 298.602 205.866 308.125 228.25C310.475 233.938 311.835 251.87 310.846 265.227C309.609 281.922 309.856 284.643 312.948 293.299C314.308 296.886 315.421 300.843 315.421 301.832C315.421 304.553 320.121 313.086 323.955 317.044C328.53 322.114 336.074 326.195 346.586 329.658C360.437 334.11 364.394 336.089 369.836 341.159C373.051 344.374 374.782 347.095 374.782 349.074C374.782 354.021 375.401 353.773 347.575 361.935C341.763 363.667 335.332 365.645 333.23 366.264C328.407 367.624 312.082 367.748 311.217 366.264C310.846 365.769 308.249 364.903 305.404 364.409C293.532 362.554 284.381 355.999 275.971 343.632C273.745 340.17 270.777 337.449 269.046 336.954C266.201 336.212 251.361 340.417 248.022 342.767C247.404 343.261 243.446 344.003 239.365 344.498C231.327 345.488 225.885 347.714 224.154 350.805C221.804 355.01 208.572 362.43 196.329 366.264L187.053 369.203C184.925 369.877 182.699 370.19 180.467 370.129L156.631 369.479C125.095 368.614 115.697 367.13 107.287 361.441C99.6197 356.123 98.2594 353.526 100.114 347.466C102.711 338.933 116.562 330.153 145.006 319.146C156.136 314.818 161.825 309.005 169.492 293.794C176.789 279.572 183.467 271.905 187.795 273.018C189.156 273.389 191.505 274.749 192.99 276.109C196.452 279.448 195.958 281.18 185.817 301.709C175.552 322.732 170.853 327.803 154.405 335.594C147.727 338.809 141.791 341.406 141.049 341.406C140.307 341.406 138.823 341.901 137.586 342.519C136.473 343.261 134 344.003 132.145 344.374C127.692 345.364 124.353 348.703 126.208 350.558C127.816 352.166 153.416 351.918 174.439 350.311C186.188 349.321 188.537 348.703 198.307 343.88C208.819 338.809 209.561 338.067 215.497 329.163C220.32 321.99 222.299 317.291 224.649 308.14C226.256 301.585 227.617 295.402 227.617 294.165C227.617 291.197 235.408 283.282 238.376 283.282C242.21 283.282 244.93 287.24 244.93 292.681C244.93 298.246 241.715 314.694 239.984 318.033C239.242 319.27 238.747 321.372 238.747 322.732C238.747 326.443 245.549 326.195 251.114 322.485C253.463 320.877 257.421 318.528 259.894 317.415C270.035 312.592 285.865 291.815 289.575 278.335C290.44 275.244 291.306 264.732 291.553 254.962C292.048 237.03 290.688 227.508 286.359 217.243C278.321 198.322 277.95 194.612 283.144 183.729C286.73 176.061 292.048 170.373 297.118 168.765C303.178 166.91 309.238 161.963 311.711 156.893C317.524 144.65 315.792 138.59 306.27 138.59C297.242 138.466 290.688 136.364 287.225 132.283C281.784 125.728 275.353 120.04 273.374 120.04C272.261 120.04 270.777 119.421 269.911 118.556C269.046 117.69 265.088 117.072 260.76 117.072C254.453 117.195 251.114 118.061 243.075 121.771C231.821 126.965 228.853 129.438 223.412 137.972C217.847 146.628 216.734 152.317 215.868 176.309C215.374 187.81 214.632 198.94 214.013 201.043C213.395 203.021 212.282 207.226 211.54 210.318C206.222 230.723 193.732 242.966 169.863 251.252C160.959 254.344 146.861 258.672 140.43 260.156C140.279 260.186 140.099 260.239 139.901 260.306C138.568 260.76 137.357 261.534 136.04 262.036C134.853 262.489 133.294 263.011 131.774 263.495C129.053 264.361 121.633 267.576 115.326 270.544C102.588 276.604 89.6026 281.427 82.9245 282.664C80.5748 283.035 77.483 283.901 76.1227 284.519C72.7836 285.879 57.0777 291.568 53.615 292.557C49.9049 293.547 48.7919 298.493 50.7706 304.182C58.0671 325.082 87.9949 369.85 94.673 369.85C96.157 369.85 100.609 372.571 104.566 376.034C126.208 394.089 145.13 406.209 163.927 413.753C173.079 417.586 184.951 421.544 189.279 422.409C191.629 422.904 194.226 423.77 194.845 424.264C198.47 426.681 205.636 426.094 209.685 426.738C231.079 429.953 238.129 430.324 249.135 429.211C284.391 425.534 318.104 414.642 346.71 393.1C363.034 380.609 378.616 365.893 385.047 356.741C407.555 324.711 415.222 309.5 422.271 282.664C424.497 273.76 424.745 269.431 424.745 239.38C424.745 210.07 424.373 204.505 422.147 194.241C417.695 174.206 408.049 150.833 399.763 140.074C397.908 137.477 394.322 132.406 391.849 128.696C383.192 115.959 364.889 98.3976 349.43 88.1331C337.558 80.0947 337.187 79.971 325.315 74.2822C313.484 68.4928 301.21 62.549 288.214 60.0603C285.865 59.5657 283.268 58.7 282.649 58.2053C279.558 55.7319 230.708 52.7639 217.105 54.1242ZM273.745 133.891L273.804 133.969C275.303 135.967 275.278 138.721 273.745 140.692C271.024 144.526 265.583 145.763 262.739 143.413C260.142 141.311 260.636 136.117 263.728 132.777C267.191 129.067 270.53 129.562 273.745 133.891ZM284.381 157.511C285.37 158.872 282.897 161.84 272.879 171.115C265.707 177.669 259.276 183.111 258.287 183.111C257.421 183.111 255.937 181.998 255.195 180.761C253.092 177.298 256.432 167.776 260.884 164.684C271.395 157.14 281.536 154.172 284.381 157.511ZM336.074 180.514C339.784 185.955 339.908 193.004 336.445 193.004C335.085 193.004 333.972 192.88 333.972 192.633C333.972 192.509 332.859 189.294 331.498 185.584C330.138 181.874 329.025 178.04 329.025 177.175C329.025 174.206 333.23 176.185 336.074 180.514Z" fill="#EC0707"/>
<path d="M290.688 314.2C286.607 319.023 283.268 323.846 283.268 324.959C283.268 327.432 294.522 339.057 301.571 344.004C309.362 349.198 323.955 352.784 336.693 352.29C345.72 351.919 346.957 351.671 346.957 349.569C346.957 347.961 344.978 346.601 339.413 344.622C335.332 343.138 328.901 339.923 325.068 337.573C317.648 333.121 305.528 319.888 305.528 316.426C305.528 313.829 300.705 305.543 299.221 305.543C298.726 305.543 294.893 309.5 290.688 314.2Z" fill="#EC0707"/>
<path d="M174.994 21.1296C173.965 21.4374 172.989 21.8068 172.018 22.2676C141.66 36.6742 84.8968 61.9408 61.7116 84.5925C16.9677 128.265 18.4343 142.025 7.70131 205.107C-5.27142 281.354 -4.16663 288.541 29.1192 358.068C43.7651 388.661 65.793 477.844 139.029 486.84C156.034 489.058 227.468 498.978 313.139 449.845C413.707 407.668 423.193 399.176 460.271 303.373C485.199 239.125 463.677 213.095 438.823 150.829C438.227 149.337 437.813 147.745 437.587 146.154C429.163 87.0692 408.281 41.6363 336.765 13.1831C264.211 -15.4298 213.019 9.76678 174.994 21.1296ZM280.196 45.4693C281.673 45.5854 283.142 45.8932 284.55 46.3531C360.427 71.1259 399.199 94.8866 429.719 186.366C439.755 216.313 430.834 247.646 429.719 280.228C428.508 314.205 405.766 336.964 390.522 366.914C389.416 369.086 387.966 371.101 386.173 372.751C307.317 445.333 210.507 444.049 167.223 430.001C146.744 423.354 123.668 411.742 98.8181 391.161C82.1099 377.323 55.0511 340.559 42.2278 317.273C41.5509 316.044 40.7596 314.917 39.9489 313.771C21.8421 288.19 28.6315 202.415 60.1765 135.976C61.1794 133.864 62.6263 131.923 64.3119 130.302C121.953 74.8879 110.965 79.741 171.404 51.2593C172.736 50.632 174.171 50.1255 175.613 49.835C201.788 44.5634 254.218 43.4261 280.196 45.4693Z" fill="#EC0707"/>
<path d="M612 379.6C594.667 379.6 579.067 376.534 565.2 370.4C551.6 364 540.8 355.467 532.8 344.8C524.8 333.867 520.533 321.734 520 308.4H567.2C568 317.734 572.4 325.6 580.4 332C588.667 338.134 598.933 341.2 611.2 341.2C624 341.2 633.867 338.8 640.8 334C648 328.934 651.6 322.534 651.6 314.8C651.6 306.534 647.6 300.4 639.6 296.4C631.867 292.4 619.467 288 602.4 283.2C585.867 278.667 572.4 274.267 562 270C551.6 265.734 542.533 259.2 534.8 250.4C527.333 241.6 523.6 230 523.6 215.6C523.6 203.867 527.067 193.2 534 183.6C540.933 173.734 550.8 166 563.6 160.4C576.667 154.8 591.6 152 608.4 152C633.467 152 653.6 158.4 668.8 171.2C684.267 183.734 692.533 200.934 693.6 222.8H648C647.2 212.934 643.2 205.067 636 199.2C628.8 193.334 619.067 190.4 606.8 190.4C594.8 190.4 585.6 192.667 579.2 197.2C572.8 201.734 569.6 207.734 569.6 215.2C569.6 221.067 571.733 226 576 230C580.267 234 585.467 237.2 591.6 239.6C597.733 241.734 606.8 244.534 618.8 248C634.8 252.267 647.867 256.667 658 261.2C668.4 265.467 677.333 271.867 684.8 280.4C692.267 288.934 696.133 300.267 696.4 314.4C696.4 326.934 692.933 338.134 686 348C679.067 357.867 669.2 365.6 656.4 371.2C643.867 376.8 629.067 379.6 612 379.6Z" fill="#1C2127"/>
<path d="M947.672 260.4C947.672 268.667 947.139 276.134 946.072 282.8H777.672C779.005 300.4 785.539 314.534 797.272 325.2C809.005 335.867 823.405 341.2 840.472 341.2C865.005 341.2 882.339 330.934 892.472 310.4H941.672C935.005 330.667 922.872 347.334 905.272 360.4C887.939 373.2 866.339 379.6 840.472 379.6C819.405 379.6 800.472 374.934 783.672 365.6C767.139 356 754.072 342.667 744.472 325.6C735.139 308.267 730.472 288.267 730.472 265.6C730.472 242.934 735.005 223.067 744.072 206C753.405 188.667 766.339 175.334 782.872 166C799.672 156.667 818.872 152 840.472 152C861.272 152 879.805 156.534 896.072 165.6C912.339 174.667 925.005 187.467 934.072 204C943.139 220.267 947.672 239.067 947.672 260.4ZM900.072 246C899.805 229.2 893.805 215.734 882.072 205.6C870.339 195.467 855.805 190.4 838.472 190.4C822.739 190.4 809.272 195.467 798.072 205.6C786.872 215.467 780.205 228.934 778.072 246H900.072Z" fill="#1C2127"/>
<path d="M977.347 264.8C977.347 242.667 981.88 223.067 990.947 206C1000.28 188.934 1012.81 175.734 1028.55 166.4C1044.55 156.8 1062.15 152 1081.35 152C1098.68 152 1113.75 155.467 1126.55 162.4C1139.61 169.067 1150.01 177.467 1157.75 187.6V155.6H1203.75V376H1157.75V343.2C1150.01 353.6 1139.48 362.267 1126.15 369.2C1112.81 376.134 1097.61 379.6 1080.55 379.6C1061.61 379.6 1044.28 374.8 1028.55 365.2C1012.81 355.334 1000.28 341.734 990.947 324.4C981.88 306.8 977.347 286.934 977.347 264.8ZM1157.75 265.6C1157.75 250.4 1154.55 237.2 1148.15 226C1142.01 214.8 1133.88 206.267 1123.75 200.4C1113.61 194.534 1102.68 191.6 1090.95 191.6C1079.21 191.6 1068.28 194.534 1058.15 200.4C1048.01 206 1039.75 214.4 1033.35 225.6C1027.21 236.534 1024.15 249.6 1024.15 264.8C1024.15 280 1027.21 293.334 1033.35 304.8C1039.75 316.267 1048.01 325.067 1058.15 331.2C1068.55 337.067 1079.48 340 1090.95 340C1102.68 340 1113.61 337.067 1123.75 331.2C1133.88 325.334 1142.01 316.8 1148.15 305.6C1154.55 294.134 1157.75 280.8 1157.75 265.6Z" fill="#1C2127"/>
<path d="M1309.24 80.0002V376H1263.64V80.0002H1309.24Z" fill="#1C2127"/>
<path d="M1338.43 379.93C1335.74 379.93 1333.47 379 1331.61 377.14C1329.75 375.28 1328.82 373.007 1328.82 370.32C1328.82 367.633 1329.75 365.36 1331.61 363.5C1333.47 361.64 1335.74 360.71 1338.43 360.71C1341.01 360.71 1343.18 361.64 1344.94 363.5C1346.8 365.36 1347.73 367.633 1347.73 370.32C1347.73 373.007 1346.8 375.28 1344.94 377.14C1343.18 379 1341.01 379.93 1338.43 379.93Z" fill="#1C2127"/>
<path d="M1380.58 307.855C1383.06 302.998 1386.58 299.227 1391.12 296.54C1395.77 293.853 1401.41 292.51 1408.02 292.51V307.08H1404.3C1388.49 307.08 1380.58 315.657 1380.58 332.81V379H1366.48V294.06H1380.58V307.855Z" fill="#1C2127"/>
<path d="M1499.63 294.06V379H1485.53V366.445C1482.84 370.785 1479.07 374.195 1474.21 376.675C1469.46 379.052 1464.19 380.24 1458.4 380.24C1451.79 380.24 1445.85 378.897 1440.58 376.21C1435.31 373.42 1431.12 369.287 1428.02 363.81C1425.02 358.333 1423.53 351.668 1423.53 343.815V294.06H1437.48V341.955C1437.48 350.325 1439.59 356.783 1443.83 361.33C1448.07 365.773 1453.85 367.995 1461.19 367.995C1468.73 367.995 1474.68 365.67 1479.02 361.02C1483.36 356.37 1485.53 349.602 1485.53 340.715V294.06H1499.63Z" fill="#1C2127"/>
<path d="M1564.83 292.51C1575.17 292.51 1583.54 295.662 1589.94 301.965C1596.35 308.165 1599.55 317.155 1599.55 328.935V379H1585.6V330.95C1585.6 322.477 1583.48 316.018 1579.25 311.575C1575.01 307.028 1569.22 304.755 1561.89 304.755C1554.45 304.755 1548.51 307.08 1544.06 311.73C1539.72 316.38 1537.55 323.148 1537.55 332.035V379H1523.45V294.06H1537.55V306.15C1540.34 301.81 1544.11 298.452 1548.87 296.075C1553.72 293.698 1559.05 292.51 1564.83 292.51Z" fill="#1C2127"/>
</svg>
